<?xml version='1.0' encoding='utf-8'?>
<svg xmlns="http://www.w3.org/2000/svg" width="91.44mm" height="91.44mm" version="1.1" style="shape-rendering:geometricPrecision; text-rendering:geometricPrecision; image-rendering:optimizeQuality; fill-rule:evenodd; clip-rule:evenodd" viewBox="0 0 9144 9144"> <defs> <style type="text/css">  .fil0 {fill:#F0F0F0} .fil1 {fill:#011627;fill-rule:nonzero}  </style> </defs> <g id="Layer_x0020_1"> <metadata id="CorelCorpID_0Corel-Layer"/> <g id="_2744577820112"> <polygon class="fil0" points="0,0 9144,0 9144,9144 0,9144 "/> <path class="fil1" d="M4572 6777c-609,0 -1160,-247 -1559,-646 -399,-399 -646,-950 -646,-1559 0,-609 247,-1160 646,-1559 399,-399 950,-646 1559,-646 609,0 1160,247 1559,646 399,399 646,950 646,1559 0,609 -247,1160 -646,1559 -399,399 -950,646 -1559,646zm-88 -3377c0,-49 39,-88 88,-88 49,0 88,39 88,88l0 847c0,49 -39,88 -88,88 -49,0 -88,-39 -88,-88l0 -847zm-396 133c44,-20 97,-1 117,43 20,44 1,97 -43,117 -52,24 -101,52 -147,85 -46,31 -89,67 -128,108l-1 0 0 0 -1 2c-2,2 -3,3 -5,4 -185,189 -278,434 -278,680 0,248 94,495 282,684l1 0 1 2 2 2c2,1 3,2 4,4 189,185 434,278 680,278 248,0 495,-94 684,-282l0 0 2 -2 2 -2c1,-2 2,-3 4,-4 185,-189 278,-434 278,-680 0,-248 -94,-495 -282,-684l0 0 -2 -2c-2,-1 -3,-3 -5,-5 -38,-38 -80,-73 -124,-103 -46,-33 -95,-61 -147,-85 -44,-20 -63,-73 -43,-117 20,-44 73,-63 117,-43 60,28 119,62 174,101 53,37 102,78 148,123 1,2 3,3 4,5l2 2 0 0 0 0c223,223 335,516 335,808 0,290 -110,580 -330,803 -1,2 -3,4 -5,6l-2 1 -1 2 -1 0 0 0c-223,223 -516,335 -808,335 -290,0 -580,-110 -803,-330 -2,-1 -4,-3 -5,-5l-2 -2 -2 -1 0 -1 0 0c-223,-223 -335,-516 -335,-808 0,-290 110,-580 330,-803 1,-2 3,-4 5,-5l2 -2 0 0c47,-47 98,-90 152,-128 55,-39 114,-73 174,-101zm-950 2473c367,367 874,594 1434,594 560,0 1067,-227 1434,-594 367,-367 594,-874 594,-1434 0,-560 -227,-1067 -594,-1434 -367,-367 -874,-594 -1434,-594 -560,0 -1067,227 -1434,594 -367,367 -594,874 -594,1434 0,560 227,1067 594,1434z"/> </g> </g> </svg>